<svg width="43" height="30" viewBox="0 0 43 30" fill="none" xmlns="http://www.w3.org/2000/svg">
<path d="M25 0C33.2843 0 40 6.71573 40 15C40 16.0272 39.8968 17.0302 39.7001 17.9994L35.5859 18.0001C35.8557 17.0464 36 16.0401 36 15C36 8.92487 31.0751 4 25 4C18.9249 4 14 8.92487 14 15C14 15.3359 14.015 15.6697 14.0448 16.0007L10.0329 16.0008C10.011 15.6687 10 15.3349 10 15C10 12.5105 10.6065 10.1626 11.6798 8.09607C7.33534 8.73454 4 12.4778 4 17C4 21.9706 8.02944 26 13 26V30C5.8203 30 0 24.1797 0 17C0 9.8203 5.8203 4 13 4C13.5667 4 14.1293 4.03638 14.6853 4.10847C17.3725 1.56277 21.0037 0 25 0ZM35 23.0533V20L39.158 20.0095C41.292 20.0855 42.9974 21.7996 42.9974 24.0171C42.9974 26.2346 41.212 28.0342 39.012 28.0342H37.8571V30H35V27.9772C35 26.3675 36.1955 25.0617 37.7925 25.0617H39.1075C39.5833 25.0617 40.1049 24.75 40.1049 24.06C40.1049 23.37 39.5786 23.0533 39.1075 23.0533H35ZM33.0014 20V23.0533H29.64C28.58 23.0533 27.6425 24 27.6425 25C27.6425 26 28.58 26.9467 29.64 26.9467H33.0014V30H29.7105C26.9688 30 24.75 27.7635 24.75 25C24.75 22.2365 26.9735 20 29.7105 20H33.0014ZM18.2873 20C21.029 20 23.2478 22.2365 23.2478 25C23.2478 27.7635 21.0243 30 18.2873 30H15V26.9467H18.36C19.42 26.9467 20.3553 26 20.3553 25C20.3553 24 19.42 23.0533 18.36 23.0533H15V20H18.2873Z" fill="url(#paint0_linear_6748_173)"></path>
<defs>
<linearGradient id="paint0_linear_6748_173" x1="8.93542e-07" y1="30" x2="29.8961" y2="-9.83297" gradientUnits="userSpaceOnUse">
<stop stop-color="#0893FF"></stop>
<stop offset="1" stop-color="#750CFF"></stop>
</linearGradient>
</defs>
</svg>