<svg width="150" height="30" viewBox="0 0 150 30" fill="none" xmlns="http://www.w3.org/2000/svg">
<g clip-path="url(#clip0_7070_2893)">
<path d="M92.3046 9H89.0498L85.2 14.0371H88.4679L92.3046 9Z" fill="url(#paint0_linear_7070_2893)"></path>
<path d="M98.0009 8.99914C101.354 8.99914 104.072 11.7164 104.072 15.07V26H101.457V20.0592C100.474 20.7386 99.2869 21.1409 98.0009 21.1409C94.6472 21.1409 91.93 18.4236 91.93 15.07C91.93 11.7164 94.6472 8.99914 98.0009 8.99914ZM83.2164 9L92.3045 21H89.0498L86.1281 17.1551L83.2164 21H79.9287L84.4892 15.0017L79.9287 9H83.2164ZM98.0009 11.6108C96.0883 11.6108 94.545 13.1541 94.545 15.0667C94.545 16.9793 96.0883 18.5226 98.0009 18.5226C99.9135 18.5226 101.457 16.9793 101.457 15.0667C101.457 13.1541 99.9135 11.6108 98.0009 11.6108ZM110.65 15.07C110.65 18.4236 113.367 21.1409 116.721 21.1409C120.075 21.1409 122.792 18.4236 122.792 15.07C122.792 11.7164 120.075 8.99914 116.721 8.99914C113.367 8.99914 110.65 11.7164 110.65 15.07ZM113.265 15.0667C113.265 13.1541 114.808 11.6108 116.721 11.6108C118.633 11.6108 120.177 13.1541 120.177 15.0667C120.177 16.9793 118.633 18.5226 116.721 18.5226C114.808 18.5226 113.265 16.9793 113.265 15.0667ZM73.7886 18.5226C72.3409 18.5226 71.1043 17.6355 70.5899 16.3758H79.7143C79.8067 15.9538 79.8594 15.5185 79.8594 15.0667C79.8594 11.7131 77.1422 8.99584 73.7886 8.99584C70.4349 8.99584 67.7177 11.7131 67.7177 15.0667C67.7177 18.4203 70.4349 21.1376 73.7886 21.1376C76.0441 21.1376 78.0029 19.9076 79.0515 18.084H75.4703C74.9724 18.3643 74.4019 18.5226 73.7886 18.5226ZM76.9971 13.9941H70.5767C71.0845 12.5971 72.3244 11.6141 73.7853 11.6141C75.2494 11.6141 76.4926 12.6007 76.9971 13.9941ZM146.381 4V10.0808C145.402 9.40145 144.211 8.99914 142.925 8.99914C139.571 8.99914 136.854 11.7164 136.854 15.07C136.854 18.4236 139.571 21.1409 142.925 21.1409C146.279 21.1409 148.996 18.4236 148.996 15.07V4H146.381ZM139.473 15.0667C139.473 13.1541 141.016 11.6108 142.928 11.6108C144.841 11.6108 146.384 13.1541 146.384 15.0667C146.384 16.9793 144.841 18.5226 142.928 18.5226C141.016 18.5226 139.473 16.9793 139.473 15.0667ZM60.3652 9.12914C57.3809 9.12914 55 11.51 55 14.4943V21.0005H57.648V14.4943C57.648 12.984 58.8549 11.7441 60.3652 11.7441C61.8755 11.7441 63.1154 12.984 63.1154 14.4943V21.0005H65.7303V14.4943C65.7303 11.543 63.3495 9.12914 60.3652 9.12914ZM135.04 9H132.425V15.6361C132.425 17.1464 131.185 18.3863 129.675 18.3863C128.165 18.3863 126.925 17.1464 126.925 15.6361V9H124.31V15.6361C124.31 18.5875 126.691 21.0013 129.675 21.0013C132.659 21.0013 135.04 18.6205 135.04 15.6361V9ZM106 4H108.615V21.0005H106V4Z" fill="#f0f0f0"></path>
</g>
<g clip-path="url(#clip1_7070_2893)">
<path d="M25 0C33.2843 0 40 6.71573 40 15C40 16.0272 39.8968 17.0302 39.7001 17.9994L35.5859 18.0001C35.8557 17.0464 36 16.0401 36 15C36 8.92487 31.0751 4 25 4C18.9249 4 14 8.92487 14 15C14 15.3359 14.015 15.6697 14.0448 16.0007L10.0329 16.0008C10.011 15.6687 10 15.3349 10 15C10 12.5105 10.6065 10.1626 11.6798 8.09607C7.33534 8.73454 4 12.4778 4 17C4 21.9706 8.02944 26 13 26V30C5.8203 30 0 24.1797 0 17C0 9.8203 5.8203 4 13 4C13.5667 4 14.1293 4.03638 14.6853 4.10847C17.3725 1.56277 21.0037 0 25 0ZM35 23.0533V20L39.158 20.0095C41.292 20.0855 42.9974 21.7996 42.9974 24.0171C42.9974 26.2346 41.212 28.0342 39.012 28.0342H37.8571V30H35V27.9772C35 26.3675 36.1955 25.0617 37.7925 25.0617H39.1075C39.5833 25.0617 40.1049 24.75 40.1049 24.06C40.1049 23.37 39.5786 23.0533 39.1075 23.0533H35ZM33.0014 20V23.0533H29.64C28.58 23.0533 27.6425 24 27.6425 25C27.6425 26 28.58 26.9467 29.64 26.9467H33.0014V30H29.7105C26.9688 30 24.75 27.7635 24.75 25C24.75 22.2365 26.9735 20 29.7105 20H33.0014ZM18.2873 20C21.029 20 23.2478 22.2365 23.2478 25C23.2478 27.7635 21.0243 30 18.2873 30H15V26.9467H18.36C19.42 26.9467 20.3553 26 20.3553 25C20.3553 24 19.42 23.0533 18.36 23.0533H15V20H18.2873Z" fill="url(#paint1_linear_7070_2893)"></path>
</g>
<defs>
<linearGradient id="paint0_linear_7070_2893" x1="85.1999" y1="387.458" x2="677.465" y2="-32.4548" gradientUnits="userSpaceOnUse">
<stop stop-color="#0893FF"></stop>
<stop offset="1" stop-color="#5139FF"></stop>
</linearGradient>
<linearGradient id="paint1_linear_7070_2893" x1="8.93542e-07" y1="30" x2="29.8961" y2="-9.83297" gradientUnits="userSpaceOnUse">
<stop stop-color="#0893FF"></stop>
<stop offset="1" stop-color="#750CFF"></stop>
</linearGradient>
<clipPath id="clip0_7070_2893">
<rect width="94" height="22" fill="white" transform="translate(55 4)"></rect>
</clipPath>
<clipPath id="clip1_7070_2893">
<rect width="43" height="30" fill="white"></rect>
</clipPath>
</defs>
</svg>
